<svg xmlns="http://www.w3.org/2000/svg" fill="none" viewBox="0 0 183 40"><path fill="#FC7A69" d="M180.5 32a2.5 2.5 0 1 0 0-5 2.5 2.5 0 0 0 0 5Z"/><path fill="#fff" d="M30.023 32C28.374 32 27 30.709 27 29.107V2.893C27 1.336 28.374 0 30.023 0 31.626 0 33 1.336 33 2.893v26.215C33 30.71 31.626 32 30.023 32ZM38 21.178V10.944C38 9.314 39.342 8 40.951 8c1.565 0 2.907 1.314 2.907 2.944v10.234c0 4.076 2.1 5.752 4.74 5.752 4.024 0 5.366-3.804 5.544-5.071V10.944C54.142 9.314 55.484 8 57.05 8 58.659 8 60 9.314 60 10.944V28.92c0 1.63-1.342 2.989-2.951 2.989-1.565 0-2.907-1.36-2.907-2.989v-2.265C53.964 28.286 51.325 32 46.495 32 41.98 32.002 38 29.013 38 21.178ZM80.402 11.301c.267.407.71 1.04.71 1.989 0 1.446-.977 2.213-2.267 2.213-.845 0-1.688-.316-2.444-1.266-.89-1.039-1.911-1.536-3.2-1.536-1.735 0-2.757.859-2.757 2.123 0 .723.267 1.672 2.312 2.26l2.711.815c3.555.994 6.533 2.71 6.533 6.734C82 29.605 77.467 32 72.844 32c-4 0-6.4-1.717-7.645-3.255C64.978 28.428 64 27.3 64 25.898c0-.994.622-2.26 2.223-2.26 1.2 0 1.867.768 2.4 1.446 1.29 1.626 2.712 2.078 4.223 2.078 2.177 0 3.378-.949 3.378-2.213 0-.77-.49-1.764-2.622-2.396l-2.533-.769c-4.489-1.266-6.356-3.705-6.356-6.914 0-4.52 4.089-6.87 8.311-6.87 3.022.002 5.911 1.223 7.378 3.301ZM105 26.756c0 .272-.131.543-.351.904-1.969 2.893-5.12 4.34-8.446 4.34C91.082 32 85 28.023 85 20.023 85 11.977 91.084 8 96.203 8c3.326 0 6.476 1.446 8.446 4.34.219.361.351.632.351.904 0 .587-.438.994-1.006.994-.395 0-.745-.225-1.094-.769-1.488-2.306-4.114-3.435-6.609-3.435-4.157 0-9.102 3.163-9.102 9.989 0 6.78 4.945 9.943 9.103 9.943 2.494 0 5.12-1.13 6.608-3.435.35-.542.699-.77 1.094-.77.568 0 1.006.408 1.006.995ZM127.788 13.359V9.306c0-.63.486-1.17 1.106-1.17.663 0 1.106.54 1.106 1.17v21.479c0 .585-.487 1.17-1.106 1.17-.62 0-1.106-.585-1.106-1.17v-4.458C126.016 30.155 122.52 32 119.023 32 114.065 32 108 28.037 108 19.978 108 11.963 114.064 8 119.023 8c3.497 0 7.037 1.712 8.765 5.359Zm.132 6.619c0-6.89-4.649-9.952-8.765-9.952-3.983 0-8.941 3.152-8.941 9.952 0 6.844 4.958 9.996 8.941 9.996 4.116 0 8.765-3.286 8.765-9.996ZM149.757 11.935c.267.498.311.77.311 1.04 0 .542-.444.95-1.021.95-.488 0-.755-.273-1.243-1.085-.888-1.447-2.619-2.803-5.592-2.803-3.33 0-5.327 1.717-5.327 4.203 0 2.033 1.421 3.435 4.439 4.202l2.885.723c4.306 1.084 6.791 2.803 6.791 6.191 0 4.25-4.083 6.644-8.656 6.644-3.639 0-7.056-1.672-8.033-4.294-.132-.362-.311-.723-.311-1.175 0-.723.444-1.175.976-1.175.577 0 .844.317 1.065.995.844 2.44 3.374 3.57 6.303 3.57 3.33 0 6.48-1.401 6.48-4.43 0-2.53-1.953-3.525-4.438-4.157l-3.818-.994c-4.038-1.04-5.859-3.3-5.859-6.057 0-3.57 3.107-6.283 7.635-6.283 3.507.003 6.081 1.585 7.413 3.935ZM175 17.892v12.95c0 .578-.493 1.157-1.121 1.157-.627 0-1.121-.579-1.121-1.157v-12.95c0-5.474-3.498-7.432-6.996-7.432-4.978 0-7.938 3.916-8.52 7.343v13.04c0 .579-.494 1.157-1.121 1.157-.628 0-1.121-.578-1.121-1.157V1.113c0-.58.493-1.113 1.121-1.113.627 0 1.121.534 1.121 1.112v13.04c.314-1.424 3.183-5.74 8.835-5.74 4.079 0 8.923 2.225 8.923 9.48ZM12.358 8c-3.122 0-5.63 1.683-6.51 3.762v-.753c0-1.807-1.797-3.315-3.712-2.761C.853 8.621 0 9.847 0 11.19V36.94c0 1.29.777 2.489 1.99 2.907 1.868.644 3.815-.818 3.815-2.723v-.238h-.021v-13.64c0-.794-.058-1.587-.142-2.378a10.528 10.528 0 0 1-.056-1.095c0-5 3.254-6.815 5.717-6.815 2.902 0 5.936 2.301 5.936 6.815 0 4.318-2.723 6.57-5.475 6.796a2.493 2.493 0 0 0-2.748 2.487 2.493 2.493 0 0 0 2.485 2.501c.027 0 .053-.003.078-.004.253.023.511.038.779.038C17.195 31.59 23 27.828 23 19.772 23 11.896 17.151 8 12.358 8Z"/><path fill="#FC7A69" d="M11.5 32a2.5 2.5 0 1 0 0-5 2.5 2.5 0 0 0 0 5Z"/></svg>